<?xml version="1.0" encoding="UTF-8"?>
<svg width="1200px" height="1200px" viewBox="0 0 1200 1200" version="1.1" xmlns="http://www.w3.org/2000/svg" xmlns:xlink="http://www.w3.org/1999/xlink">
    <title>评论</title>
    <g id="NFT详情页面" stroke="none" stroke-width="1" fill="none" fill-rule="evenodd">
        <g id="画板" transform="translate(116.000000, 162.000000)">
            <g id="ico_interactionbar_comments" transform="translate(-116.000000, -162.000000)">
                <rect id="安全区" x="0" y="0" width="1200" height="1200"></rect>
                <path d="M910,578.713453 C910,727.853461 771.207143,850.621347 600.000784,850.621347 C596.93672,850.621347 593.885207,850.583763 590.843107,850.505588 C576.103279,850.451467 557.878921,851.267795 536.235927,852.933525 C496.773352,855.968823 482.235912,858.563634 455.900334,861.704168 C442.439161,863.311267 422.617661,864.565135 396.44368,869.190995 C378.136171,872.883264 367.82692,873.289173 365.514359,870.413233 C362.047087,866.09857 364.687548,859.802469 369.387977,854.573759 C378.818643,844.080258 380.094035,830.993493 382.837538,815.939394 C386.453123,796.100026 383.688512,772.183241 369.634294,759.388085 C320.121337,711.540427 290,648.191554 290,578.713453 C290,429.568935 428.792857,308.666667 600.000784,308.666667 C771.207143,308.666667 910,429.568935 910,578.713453 Z M339.149091,583.158163 C339.149091,632.448015 375.869215,689.904819 420.887818,734.451506 C443.644222,752.562804 440.312182,795.065861 436.651696,808.903307 C435.905786,811.725886 435.489856,811.521523 436.217349,812.186443 C436.944842,812.848401 436.96326,812.413019 440.792573,811.478577 C453.259711,808.441269 481.564399,804.174822 503.577961,802.998994 C529.695566,801.602514 603.688027,797.861783 603.688027,797.861783 C727.795179,797.851287 856.291717,701.57627 856.291717,583.158163 C856.291717,464.740056 744.30378,358.492121 600.000767,358.492121 C459.921574,358.492121 339.149091,462.690631 339.149091,583.158163 Z" id="Fill-1" fill="currentColor"></path>
            </g>
        </g>
    </g>
</svg>